<svg width="124" height="12" viewBox="0 0 124 12" fill="none" xmlns="http://www.w3.org/2000/svg">
<path d="M10.9274 10.636C11.0127 10.796 11.0554 10.9347 11.0554 11.052C11.0661 11.1587 11.0341 11.26 10.9594 11.356C10.8847 11.4413 10.7674 11.5213 10.6074 11.596C10.3514 11.7133 10.1487 11.74 9.99936 11.676C9.86069 11.612 9.73269 11.4573 9.61536 11.212L5.61536 2.70003L1.64736 11.196C1.53003 11.4413 1.39669 11.596 1.24736 11.66C1.10869 11.724 0.906031 11.6973 0.639364 11.58C0.479364 11.516 0.362031 11.436 0.287364 11.34C0.223364 11.244 0.196697 11.1267 0.207364 10.988C0.228697 10.8493 0.282031 10.6893 0.367364 10.508L4.95936 0.924031C5.02336 0.796031 5.11403 0.694697 5.23136 0.620031C5.35936 0.534697 5.49269 0.492031 5.63136 0.492031C5.72736 0.492031 5.81803 0.50803 5.90336 0.54003C5.98869 0.57203 6.06336 0.62003 6.12736 0.68403C6.19136 0.748031 6.24469 0.833364 6.28736 0.940031L10.9274 10.636ZM2.60736 8.47603L3.15136 7.24403H8.11136L8.63936 8.47603H2.60736ZM16.609 11.66C16.417 11.66 16.2677 11.628 16.161 11.564C16.065 11.5 15.9957 11.4147 15.953 11.308C15.9104 11.1907 15.889 11.0627 15.889 10.924V1.19603C15.889 1.05736 15.9104 0.940031 15.953 0.844031C15.9957 0.737364 16.0704 0.65203 16.177 0.58803C16.2837 0.524031 16.4384 0.492031 16.641 0.492031C16.801 0.492031 16.929 0.502697 17.025 0.52403C17.121 0.545364 17.1957 0.577364 17.249 0.620031C17.313 0.65203 17.377 0.705364 17.441 0.780031L21.617 6.82803H21.121L25.345 0.73203C25.409 0.657364 25.473 0.604031 25.537 0.572031C25.601 0.54003 25.681 0.518697 25.777 0.50803C25.8837 0.497364 26.0064 0.492031 26.145 0.492031C26.3477 0.492031 26.497 0.524031 26.593 0.58803C26.6997 0.65203 26.7744 0.742697 26.817 0.860031C26.8597 0.966697 26.881 1.08936 26.881 1.22803V10.956C26.881 11.084 26.8597 11.2013 26.817 11.308C26.7744 11.4147 26.6997 11.5 26.593 11.564C26.4864 11.628 26.3317 11.66 26.129 11.66C25.937 11.66 25.7877 11.628 25.681 11.564C25.585 11.5 25.5157 11.4147 25.473 11.308C25.441 11.1907 25.425 11.0627 25.425 10.924V2.89203L22.001 7.93203C21.969 7.98536 21.9264 8.0387 21.873 8.09203C21.8197 8.1347 21.7504 8.17203 21.665 8.20403C21.5904 8.23603 21.4944 8.25203 21.377 8.25203C21.249 8.25203 21.1477 8.23603 21.073 8.20403C21.009 8.17203 20.9504 8.1347 20.897 8.09203C20.8437 8.0387 20.7904 7.98003 20.737 7.91603L17.329 2.90803V10.956C17.329 11.084 17.3077 11.2013 17.265 11.308C17.233 11.4147 17.1637 11.5 17.057 11.564C16.961 11.628 16.8117 11.66 16.609 11.66ZM33.3162 11.66C33.1135 11.66 32.9588 11.628 32.8522 11.564C32.7562 11.5107 32.6922 11.4307 32.6602 11.324C32.6282 11.2067 32.6122 11.0733 32.6122 10.924V1.21203C32.6122 1.07336 32.6282 0.950697 32.6602 0.844031C32.7028 0.737364 32.7775 0.65203 32.8842 0.58803C32.9908 0.524031 33.1402 0.492031 33.3322 0.492031H36.8362C37.3482 0.492031 37.8175 0.572031 38.2442 0.73203C38.6815 0.881364 39.0602 1.11603 39.3802 1.43603C39.7108 1.74536 39.9668 2.12403 40.1482 2.57203C40.3295 3.02003 40.4202 3.53736 40.4202 4.12403C40.4202 4.70003 40.3295 5.21203 40.1482 5.66003C39.9668 6.10803 39.7108 6.4867 39.3802 6.79603C39.0495 7.0947 38.6655 7.32403 38.2282 7.48403C37.8015 7.64403 37.3322 7.72403 36.8202 7.72403H34.0682V10.94C34.0682 11.0893 34.0468 11.2173 34.0042 11.324C33.9722 11.4307 33.9028 11.5107 33.7962 11.564C33.7002 11.628 33.5402 11.66 33.3162 11.66ZM34.0682 6.26803H36.8362C37.2628 6.26803 37.6362 6.18803 37.9562 6.02803C38.2762 5.85736 38.5268 5.61203 38.7082 5.29203C38.8895 4.96136 38.9802 4.56136 38.9802 4.09203C38.9802 3.64403 38.8948 3.26003 38.7242 2.94003C38.5535 2.62003 38.3028 2.3747 37.9722 2.20403C37.6522 2.03336 37.2682 1.94803 36.8202 1.94803H34.0682V6.26803ZM46.5735 11.66C46.3602 11.66 46.2002 11.628 46.0935 11.564C45.9975 11.5107 45.9335 11.4307 45.9015 11.324C45.8695 11.2067 45.8535 11.0733 45.8535 10.924V1.21203C45.8535 0.934697 45.9069 0.748031 46.0135 0.65203C46.1309 0.545364 46.3335 0.492031 46.6215 0.492031H53.0535C53.2029 0.492031 53.3309 0.50803 53.4375 0.54003C53.5442 0.57203 53.6242 0.641364 53.6775 0.74803C53.7309 0.854697 53.7575 1.0147 53.7575 1.22803C53.7575 1.44136 53.7255 1.60136 53.6615 1.70803C53.6082 1.80403 53.5282 1.86803 53.4215 1.90003C53.3149 1.93203 53.1869 1.94803 53.0375 1.94803H47.2935V5.26003H51.2935C51.4429 5.26003 51.5655 5.27603 51.6615 5.30803C51.7682 5.34003 51.8482 5.40403 51.9015 5.50003C51.9549 5.59603 51.9815 5.74536 51.9815 5.94803C51.9815 6.14003 51.9549 6.28403 51.9015 6.38003C51.8482 6.47603 51.7682 6.54003 51.6615 6.57203C51.5549 6.59336 51.4215 6.60403 51.2615 6.60403H47.2935V10.22H53.0535C53.2029 10.22 53.3309 10.236 53.4375 10.268C53.5442 10.3 53.6242 10.3693 53.6775 10.476C53.7309 10.572 53.7575 10.7267 53.7575 10.94C53.7575 11.1533 53.7255 11.3133 53.6615 11.42C53.6082 11.516 53.5282 11.58 53.4215 11.612C53.3149 11.644 53.1869 11.66 53.0375 11.66H46.5735ZM60.0463 11.66C59.8436 11.66 59.6889 11.628 59.5823 11.564C59.4756 11.5107 59.4063 11.4307 59.3743 11.324C59.3529 11.2067 59.3423 11.0733 59.3423 10.924V1.19603C59.3423 1.05736 59.3583 0.940031 59.3903 0.844031C59.4329 0.737364 59.5023 0.65203 59.5983 0.58803C59.7049 0.524031 59.8596 0.492031 60.0623 0.492031H63.5983C64.1209 0.492031 64.5956 0.572031 65.0223 0.73203C65.4596 0.881364 65.8383 1.10536 66.1583 1.40403C66.4783 1.7027 66.7236 2.08136 66.8943 2.54003C67.0756 2.98803 67.1663 3.5107 67.1663 4.10803C67.1663 4.48136 67.1076 4.8707 66.9903 5.27603C66.8729 5.6707 66.6916 6.04403 66.4463 6.39603C66.2116 6.74803 65.9076 7.04136 65.5343 7.27603C65.1609 7.5107 64.7076 7.64403 64.1743 7.67603H60.7823V10.94C60.7823 11.0893 60.7609 11.2173 60.7183 11.324C60.6863 11.4307 60.6169 11.5107 60.5103 11.564C60.4143 11.628 60.2596 11.66 60.0463 11.66ZM66.9103 11.484C66.6863 11.6333 66.4943 11.6813 66.3343 11.628C66.1849 11.5747 66.0409 11.4467 65.9023 11.244L63.3423 7.14803L64.9263 6.90803L67.1343 10.428C67.2409 10.5987 67.3049 10.7427 67.3263 10.86C67.3583 10.9773 67.3369 11.084 67.2623 11.18C67.1983 11.276 67.0809 11.3773 66.9103 11.484ZM60.7823 6.26803H63.9503C64.1956 6.26803 64.4249 6.22536 64.6383 6.14003C64.8516 6.04403 65.0383 5.90536 65.1983 5.72403C65.3583 5.5427 65.4863 5.3187 65.5823 5.05203C65.6783 4.78536 65.7263 4.46536 65.7263 4.09203C65.7263 3.63336 65.6409 3.24403 65.4703 2.92403C65.3103 2.60403 65.0703 2.36403 64.7503 2.20403C64.4303 2.03336 64.0356 1.94803 63.5663 1.94803H60.7823V6.26803ZM75.8104 11.82C75.4051 11.82 75.0211 11.772 74.6584 11.676C74.3064 11.58 73.9811 11.452 73.6824 11.292C73.3944 11.1213 73.1384 10.9347 72.9144 10.732C72.6904 10.5293 72.5144 10.3267 72.3864 10.124C72.2691 9.95336 72.1944 9.8147 72.1624 9.70803C72.1304 9.5907 72.1357 9.4787 72.1784 9.37203C72.2317 9.26536 72.3331 9.14803 72.4824 9.02003C72.6531 8.89203 72.8024 8.83336 72.9304 8.84403C73.0584 8.84403 73.1757 8.89203 73.2824 8.98803C73.3997 9.08403 73.5171 9.21203 73.6344 9.37203C73.9011 9.7347 74.2264 10.0013 74.6104 10.172C74.9944 10.332 75.3731 10.412 75.7464 10.412C76.2264 10.412 76.6531 10.348 77.0264 10.22C77.3997 10.092 77.6931 9.90003 77.9064 9.64403C78.1304 9.37736 78.2424 9.03603 78.2424 8.62003C78.2424 8.2787 78.1571 7.9907 77.9864 7.75603C77.8157 7.52136 77.5864 7.32403 77.2984 7.16403C77.0104 6.99336 76.6904 6.84936 76.3384 6.73203C75.9864 6.60403 75.6291 6.48136 75.2664 6.36403C74.9784 6.26803 74.6957 6.16136 74.4184 6.04403C74.1411 5.91603 73.8797 5.77736 73.6344 5.62803C73.3891 5.46803 73.1704 5.28136 72.9784 5.06803C72.7971 4.8547 72.6531 4.60403 72.5464 4.31603C72.4504 4.02803 72.4024 3.69203 72.4024 3.30803C72.4024 2.72136 72.5411 2.20403 72.8184 1.75603C73.1064 1.30803 73.5064 0.961364 74.0184 0.716031C74.5304 0.460031 75.1224 0.332031 75.7944 0.332031C76.1891 0.332031 76.5517 0.369364 76.8824 0.44403C77.2131 0.518697 77.5064 0.620031 77.7624 0.74803C78.0184 0.865364 78.2371 0.993364 78.4184 1.13203C78.5997 1.26003 78.7384 1.3827 78.8344 1.50003C79.0264 1.7027 79.1331 1.87336 79.1544 2.01203C79.1757 2.1507 79.0957 2.32136 78.9144 2.52403C78.7437 2.71603 78.5784 2.81736 78.4184 2.82803C78.2584 2.8387 78.0824 2.76403 77.8904 2.60403C77.6877 2.36936 77.4744 2.18803 77.2504 2.06003C77.0371 1.93203 76.8077 1.8467 76.5624 1.80403C76.3277 1.7507 76.0664 1.72403 75.7784 1.72403C75.5011 1.72403 75.2397 1.76136 74.9944 1.83603C74.7597 1.90003 74.5517 2.00136 74.3704 2.14003C74.1997 2.2787 74.0664 2.44936 73.9704 2.65203C73.8744 2.84403 73.8264 3.06803 73.8264 3.32403C73.8264 3.61203 73.9011 3.85736 74.0504 4.06003C74.2104 4.2627 74.4184 4.4387 74.6744 4.58803C74.9304 4.7267 75.2184 4.8547 75.5384 4.97203C75.8584 5.0787 76.1944 5.18536 76.5464 5.29203C76.9304 5.40936 77.3091 5.55336 77.6824 5.72403C78.0557 5.88403 78.3917 6.0867 78.6904 6.33203C78.9891 6.5667 79.2291 6.86536 79.4104 7.22803C79.5917 7.5907 79.6824 8.0387 79.6824 8.57203C79.6824 9.10536 79.5757 9.5747 79.3624 9.98003C79.1597 10.3853 78.8771 10.7267 78.5144 11.004C78.1517 11.2707 77.7357 11.4733 77.2664 11.612C76.8077 11.7507 76.3224 11.82 75.8104 11.82ZM94.1412 10.636C94.2265 10.796 94.2692 10.9347 94.2692 11.052C94.2798 11.1587 94.2478 11.26 94.1732 11.356C94.0985 11.4413 93.9812 11.5213 93.8212 11.596C93.5652 11.7133 93.3625 11.74 93.2132 11.676C93.0745 11.612 92.9465 11.4573 92.8292 11.212L88.8292 2.70003L84.8612 11.196C84.7438 11.4413 84.6105 11.596 84.4612 11.66C84.3225 11.724 84.1198 11.6973 83.8532 11.58C83.6932 11.516 83.5758 11.436 83.5012 11.34C83.4372 11.244 83.4105 11.1267 83.4212 10.988C83.4425 10.8493 83.4958 10.6893 83.5812 10.508L88.1732 0.924031C88.2372 0.796031 88.3278 0.694697 88.4452 0.620031C88.5732 0.534697 88.7065 0.492031 88.8452 0.492031C88.9412 0.492031 89.0318 0.50803 89.1172 0.54003C89.2025 0.57203 89.2772 0.62003 89.3412 0.68403C89.4052 0.748031 89.4585 0.833364 89.5012 0.940031L94.1412 10.636ZM85.8212 8.47603L86.3652 7.24403H91.3252L91.8532 8.47603H85.8212ZM99.7268 11.66C99.5454 11.66 99.4014 11.628 99.2948 11.564C99.1988 11.5 99.1294 11.4147 99.0868 11.308C99.0548 11.1907 99.0388 11.0573 99.0388 10.908V1.16403C99.0388 1.02536 99.0601 0.90803 99.1028 0.81203C99.1454 0.71603 99.2201 0.641364 99.3268 0.58803C99.4441 0.524031 99.6041 0.492031 99.8068 0.492031C100.041 0.492031 100.206 0.513364 100.302 0.556031C100.398 0.598698 100.494 0.673364 100.59 0.780031L106.606 9.29203V1.16403C106.606 1.02536 106.622 0.90803 106.654 0.81203C106.697 0.71603 106.772 0.641364 106.878 0.58803C106.985 0.524031 107.14 0.492031 107.342 0.492031C107.534 0.492031 107.678 0.524031 107.774 0.58803C107.881 0.65203 107.95 0.742697 107.982 0.860031C108.025 0.966697 108.046 1.08936 108.046 1.22803V10.924C108.046 11.0627 108.02 11.1907 107.966 11.308C107.924 11.4147 107.844 11.5 107.726 11.564C107.62 11.628 107.465 11.66 107.262 11.66C107.092 11.66 106.948 11.6387 106.83 11.596C106.724 11.5533 106.622 11.4733 106.526 11.356L100.478 2.90803V10.924C100.478 11.0627 100.457 11.1907 100.414 11.308C100.372 11.4147 100.297 11.5 100.19 11.564C100.084 11.628 99.9294 11.66 99.7268 11.66ZM114.591 11.66C114.409 11.66 114.265 11.628 114.159 11.564C114.063 11.5 113.993 11.4147 113.951 11.308C113.908 11.1907 113.887 11.0627 113.887 10.924V1.19603C113.887 1.05736 113.903 0.934697 113.935 0.82803C113.977 0.721364 114.052 0.63603 114.159 0.572031C114.265 0.508031 114.415 0.476031 114.607 0.476031L117.759 0.492031C118.548 0.492031 119.263 0.625364 119.903 0.89203C120.553 1.14803 121.108 1.51603 121.567 1.99603C122.025 2.47603 122.377 3.05736 122.623 3.74003C122.868 4.4227 122.991 5.18003 122.991 6.01203C122.991 6.87603 122.868 7.6547 122.623 8.34803C122.377 9.04136 122.02 9.63336 121.551 10.124C121.092 10.6147 120.537 10.9933 119.887 11.26C119.236 11.5267 118.511 11.66 117.711 11.66H114.591ZM115.327 10.204H117.759C118.537 10.204 119.209 10.0387 119.775 9.70803C120.34 9.3667 120.777 8.89203 121.087 8.28403C121.396 7.66536 121.551 6.9347 121.551 6.09203C121.551 5.2387 121.396 4.5027 121.087 3.88403C120.777 3.26536 120.335 2.7907 119.759 2.46003C119.193 2.1187 118.521 1.94803 117.743 1.94803H115.327V10.204Z" fill="#164967"/>
</svg>
