<svg width="122" height="23" viewBox="0 0 122 23" fill="none" xmlns="http://www.w3.org/2000/svg">
<path d="M6.976 11.376H11.416L9.256 5.088H9.208L6.976 11.376ZM7.336 0.863999H11.2L17.608 18H13.696L12.4 14.184H5.992L4.648 18H0.856L7.336 0.863999ZM17.6217 5.592H20.8377V7.272H20.8857C21.3337 6.632 21.8697 6.136 22.4937 5.784C23.1337 5.432 23.8617 5.256 24.6777 5.256C25.4617 5.256 26.1737 5.408 26.8137 5.712C27.4697 6.016 27.9657 6.552 28.3017 7.32C28.6697 6.776 29.1657 6.296 29.7897 5.88C30.4297 5.464 31.1817 5.256 32.0457 5.256C32.7017 5.256 33.3097 5.336 33.8697 5.496C34.4297 5.656 34.9097 5.912 35.3097 6.264C35.7097 6.616 36.0217 7.08 36.2457 7.656C36.4697 8.216 36.5817 8.896 36.5817 9.696V18H33.1737V10.968C33.1737 10.552 33.1577 10.16 33.1257 9.792C33.0937 9.424 33.0057 9.104 32.8617 8.832C32.7177 8.56 32.5017 8.344 32.2137 8.184C31.9417 8.024 31.5657 7.944 31.0857 7.944C30.6057 7.944 30.2137 8.04 29.9097 8.232C29.6217 8.408 29.3897 8.648 29.2137 8.952C29.0537 9.24 28.9417 9.576 28.8777 9.96C28.8297 10.328 28.8057 10.704 28.8057 11.088V18H25.3977V11.04C25.3977 10.672 25.3897 10.312 25.3737 9.96C25.3577 9.592 25.2857 9.256 25.1577 8.952C25.0457 8.648 24.8457 8.408 24.5577 8.232C24.2857 8.04 23.8777 7.944 23.3337 7.944C23.1737 7.944 22.9577 7.984 22.6857 8.064C22.4297 8.128 22.1737 8.264 21.9177 8.472C21.6777 8.664 21.4697 8.952 21.2937 9.336C21.1177 9.704 21.0297 10.192 21.0297 10.8V18H17.6217V5.592ZM44.3397 15.768C44.8997 15.768 45.3637 15.656 45.7317 15.432C46.1157 15.208 46.4197 14.92 46.6437 14.568C46.8837 14.2 47.0517 13.776 47.1477 13.296C47.2437 12.816 47.2917 12.328 47.2917 11.832C47.2917 11.336 47.2357 10.848 47.1237 10.368C47.0277 9.888 46.8597 9.464 46.6197 9.096C46.3797 8.712 46.0677 8.408 45.6837 8.184C45.3157 7.944 44.8597 7.824 44.3157 7.824C43.7557 7.824 43.2837 7.944 42.8997 8.184C42.5317 8.408 42.2277 8.704 41.9877 9.072C41.7637 9.44 41.6037 9.864 41.5077 10.344C41.4117 10.824 41.3637 11.32 41.3637 11.832C41.3637 12.328 41.4117 12.816 41.5077 13.296C41.6197 13.776 41.7877 14.2 42.0117 14.568C42.2517 14.92 42.5637 15.208 42.9477 15.432C43.3317 15.656 43.7957 15.768 44.3397 15.768ZM38.0757 5.592H41.3157V7.176H41.3637C41.7797 6.504 42.3077 6.016 42.9477 5.712C43.5877 5.408 44.2917 5.256 45.0597 5.256C46.0357 5.256 46.8757 5.44 47.5797 5.808C48.2837 6.176 48.8677 6.664 49.3317 7.272C49.7957 7.88 50.1397 8.592 50.3637 9.408C50.5877 10.208 50.6997 11.048 50.6997 11.928C50.6997 12.76 50.5877 13.56 50.3637 14.328C50.1397 15.096 49.7957 15.776 49.3317 16.368C48.8837 16.96 48.3157 17.432 47.6277 17.784C46.9557 18.136 46.1637 18.312 45.2517 18.312C44.4837 18.312 43.7717 18.16 43.1157 17.856C42.4757 17.536 41.9477 17.072 41.5317 16.464H41.4837V22.344H38.0757V5.592ZM59.8996 10.464C59.7396 9.6 59.4516 8.944 59.0356 8.496C58.6356 8.048 58.0196 7.824 57.1876 7.824C56.6436 7.824 56.1876 7.92 55.8196 8.112C55.4676 8.288 55.1796 8.512 54.9556 8.784C54.7476 9.056 54.5956 9.344 54.4996 9.648C54.4196 9.952 54.3716 10.224 54.3556 10.464H59.8996ZM54.3556 12.624C54.4036 13.728 54.6836 14.528 55.1956 15.024C55.7076 15.52 56.4436 15.768 57.4036 15.768C58.0916 15.768 58.6836 15.6 59.1796 15.264C59.6756 14.912 59.9796 14.544 60.0916 14.16H63.0916C62.6116 15.648 61.8756 16.712 60.8836 17.352C59.8916 17.992 58.6916 18.312 57.2836 18.312C56.3076 18.312 55.4276 18.16 54.6436 17.856C53.8596 17.536 53.1956 17.088 52.6516 16.512C52.1076 15.936 51.6836 15.248 51.3796 14.448C51.0916 13.648 50.9476 12.768 50.9476 11.808C50.9476 10.88 51.0996 10.016 51.4036 9.216C51.7076 8.416 52.1396 7.728 52.6996 7.152C53.2596 6.56 53.9236 6.096 54.6916 5.76C55.4756 5.424 56.3396 5.256 57.2836 5.256C58.3396 5.256 59.2596 5.464 60.0436 5.88C60.8276 6.28 61.4676 6.824 61.9636 7.512C62.4756 8.2 62.8436 8.984 63.0676 9.864C63.2916 10.744 63.3716 11.664 63.3076 12.624H54.3556ZM64.1288 5.592H67.3688V7.896H67.4168C67.5768 7.512 67.7928 7.16 68.0648 6.84C68.3368 6.504 68.6488 6.224 69.0008 6C69.3528 5.76 69.7288 5.576 70.1288 5.448C70.5288 5.32 70.9448 5.256 71.3768 5.256C71.6008 5.256 71.8488 5.296 72.1208 5.376V8.544C71.9608 8.512 71.7688 8.488 71.5448 8.472C71.3208 8.44 71.1048 8.424 70.8968 8.424C70.2728 8.424 69.7448 8.528 69.3128 8.736C68.8808 8.944 68.5288 9.232 68.2568 9.6C68.0008 9.952 67.8168 10.368 67.7048 10.848C67.5928 11.328 67.5368 11.848 67.5368 12.408V18H64.1288V5.592ZM74.8969 13.968C74.8969 14.336 74.9689 14.656 75.1129 14.928C75.2729 15.184 75.4729 15.4 75.7129 15.576C75.9529 15.736 76.2249 15.856 76.5289 15.936C76.8489 16.016 77.1769 16.056 77.5129 16.056C77.7529 16.056 78.0009 16.032 78.2569 15.984C78.5289 15.92 78.7689 15.832 78.9769 15.72C79.2009 15.592 79.3849 15.432 79.5289 15.24C79.6729 15.032 79.7449 14.776 79.7449 14.472C79.7449 13.96 79.4009 13.576 78.7129 13.32C78.0409 13.064 77.0969 12.808 75.8809 12.552C75.3849 12.44 74.8969 12.312 74.4169 12.168C73.9529 12.008 73.5369 11.808 73.1689 11.568C72.8009 11.312 72.5049 11 72.2809 10.632C72.0569 10.248 71.9449 9.784 71.9449 9.24C71.9449 8.44 72.0969 7.784 72.4009 7.272C72.7209 6.76 73.1369 6.36 73.6489 6.072C74.1609 5.768 74.7369 5.56 75.3769 5.448C76.0169 5.32 76.6729 5.256 77.3449 5.256C78.0169 5.256 78.6649 5.32 79.2889 5.448C79.9289 5.576 80.4969 5.792 80.9929 6.096C81.4889 6.4 81.8969 6.808 82.2169 7.32C82.5529 7.816 82.7529 8.448 82.8169 9.216H79.5769C79.5289 8.56 79.2809 8.12 78.8329 7.896C78.3849 7.656 77.8569 7.536 77.2489 7.536C77.0569 7.536 76.8489 7.552 76.6249 7.584C76.4009 7.6 76.1929 7.648 76.0009 7.728C75.8249 7.808 75.6729 7.928 75.5449 8.088C75.4169 8.232 75.3529 8.432 75.3529 8.688C75.3529 8.992 75.4649 9.24 75.6889 9.432C75.9129 9.624 76.2009 9.784 76.5529 9.912C76.9209 10.024 77.3369 10.128 77.8009 10.224C78.2649 10.32 78.7369 10.424 79.2169 10.536C79.7129 10.648 80.1929 10.784 80.6569 10.944C81.1369 11.104 81.5609 11.32 81.9289 11.592C82.2969 11.848 82.5929 12.176 82.8169 12.576C83.0409 12.96 83.1529 13.44 83.1529 14.016C83.1529 14.832 82.9849 15.52 82.6489 16.08C82.3289 16.624 81.9049 17.064 81.3769 17.4C80.8489 17.736 80.2409 17.968 79.5529 18.096C78.8809 18.24 78.1929 18.312 77.4889 18.312C76.7689 18.312 76.0649 18.24 75.3769 18.096C74.6889 17.952 74.0729 17.712 73.5289 17.376C73.0009 17.04 72.5609 16.6 72.2089 16.056C71.8729 15.496 71.6889 14.8 71.6569 13.968H74.8969ZM83.8036 9.408C83.8516 8.608 84.0516 7.944 84.4036 7.416C84.7556 6.888 85.2036 6.464 85.7476 6.144C86.2916 5.824 86.8996 5.6 87.5716 5.472C88.2596 5.328 88.9476 5.256 89.6356 5.256C90.2596 5.256 90.8916 5.304 91.5316 5.4C92.1716 5.48 92.7556 5.648 93.2836 5.904C93.8116 6.16 94.2436 6.52 94.5796 6.984C94.9156 7.432 95.0836 8.032 95.0836 8.784V15.24C95.0836 15.8 95.1156 16.336 95.1796 16.848C95.2436 17.36 95.3556 17.744 95.5156 18H92.0596C91.9956 17.808 91.9396 17.616 91.8916 17.424C91.8596 17.216 91.8356 17.008 91.8196 16.8C91.2756 17.36 90.6356 17.752 89.8996 17.976C89.1636 18.2 88.4116 18.312 87.6436 18.312C87.0516 18.312 86.4996 18.24 85.9876 18.096C85.4756 17.952 85.0276 17.728 84.6436 17.424C84.2596 17.12 83.9556 16.736 83.7316 16.272C83.5236 15.808 83.4196 15.256 83.4196 14.616C83.4196 13.912 83.5396 13.336 83.7796 12.888C84.0356 12.424 84.3556 12.056 84.7396 11.784C85.1396 11.512 85.5876 11.312 86.0836 11.184C86.5956 11.04 87.1076 10.928 87.6196 10.848C88.1316 10.768 88.6356 10.704 89.1316 10.656C89.6276 10.608 90.0676 10.536 90.4516 10.44C90.8356 10.344 91.1396 10.208 91.3636 10.032C91.5876 9.84 91.6916 9.568 91.6756 9.216C91.6756 8.848 91.6116 8.56 91.4836 8.352C91.3716 8.128 91.2116 7.96 91.0036 7.848C90.8116 7.72 90.5796 7.64 90.3076 7.608C90.0516 7.56 89.7716 7.536 89.4676 7.536C88.7956 7.536 88.2676 7.68 87.8836 7.968C87.4996 8.256 87.2756 8.736 87.2116 9.408H83.8036ZM91.6756 11.928C91.5316 12.056 91.3476 12.16 91.1236 12.24C90.9156 12.304 90.6836 12.36 90.4276 12.408C90.1876 12.456 89.9316 12.496 89.6596 12.528C89.3876 12.56 89.1156 12.6 88.8436 12.648C88.5876 12.696 88.3316 12.76 88.0756 12.84C87.8356 12.92 87.6196 13.032 87.4276 13.176C87.2516 13.304 87.1076 13.472 86.9956 13.68C86.8836 13.888 86.8276 14.152 86.8276 14.472C86.8276 14.776 86.8836 15.032 86.9956 15.24C87.1076 15.448 87.2596 15.616 87.4516 15.744C87.6436 15.856 87.8676 15.936 88.1236 15.984C88.3796 16.032 88.6436 16.056 88.9156 16.056C89.5876 16.056 90.1076 15.944 90.4756 15.72C90.8436 15.496 91.1156 15.232 91.2916 14.928C91.4676 14.608 91.5716 14.288 91.6036 13.968C91.6516 13.648 91.6756 13.392 91.6756 13.2V11.928ZM96.5288 5.592H99.7688V7.32H99.8408C100.273 6.6 100.833 6.08 101.521 5.76C102.209 5.424 102.913 5.256 103.633 5.256C104.545 5.256 105.289 5.384 105.865 5.64C106.457 5.88 106.921 6.224 107.257 6.672C107.593 7.104 107.825 7.64 107.953 8.28C108.097 8.904 108.169 9.6 108.169 10.368V18H104.761V10.992C104.761 9.968 104.601 9.208 104.281 8.712C103.961 8.2 103.393 7.944 102.577 7.944C101.649 7.944 100.977 8.224 100.561 8.784C100.145 9.328 99.9368 10.232 99.9368 11.496V18H96.5288V5.592ZM118.363 11.76C118.363 11.248 118.315 10.76 118.219 10.296C118.123 9.816 117.955 9.4 117.715 9.048C117.491 8.68 117.195 8.384 116.827 8.16C116.459 7.936 115.995 7.824 115.435 7.824C114.875 7.824 114.403 7.936 114.019 8.16C113.635 8.384 113.323 8.68 113.083 9.048C112.859 9.416 112.691 9.84 112.579 10.32C112.483 10.784 112.435 11.272 112.435 11.784C112.435 12.264 112.491 12.744 112.603 13.224C112.715 13.704 112.891 14.136 113.131 14.52C113.387 14.888 113.699 15.192 114.067 15.432C114.451 15.656 114.907 15.768 115.435 15.768C115.995 15.768 116.459 15.656 116.827 15.432C117.211 15.208 117.515 14.912 117.739 14.544C117.963 14.16 118.123 13.728 118.219 13.248C118.315 12.768 118.363 12.272 118.363 11.76ZM118.411 16.416H118.363C117.963 17.088 117.435 17.576 116.779 17.88C116.139 18.168 115.411 18.312 114.595 18.312C113.667 18.312 112.851 18.136 112.147 17.784C111.443 17.416 110.859 16.928 110.395 16.32C109.947 15.696 109.603 14.984 109.363 14.184C109.139 13.384 109.027 12.552 109.027 11.688C109.027 10.856 109.139 10.056 109.363 9.288C109.603 8.504 109.947 7.816 110.395 7.224C110.859 6.632 111.435 6.16 112.123 5.808C112.811 5.44 113.611 5.256 114.523 5.256C115.259 5.256 115.955 5.416 116.611 5.736C117.283 6.04 117.811 6.496 118.195 7.104H118.243V0.863999H121.651V18H118.411V16.416Z" fill="#FDFCFD"/>
</svg>
